<svg width="573" height="336" viewBox="0 0 573 336" fill="none" xmlns="http://www.w3.org/2000/svg">
<path d="M120 120V225H135V120H120ZM60 120V30L45 15V120H30V15H15V210L30 225H105V120H60ZM30 210V135H45V210H30ZM90 210H60V135H90V210Z" fill="url(#paint0_linear_2_4)"/>
<path d="M120 120V118.8H118.8V120H120ZM120 225H118.8V226.2H120V225ZM135 225V226.2H136.2V225H135ZM135 120H136.2V118.8H135V120ZM60 120H58.8V121.2H60V120ZM60 30H61.2V29.5029L60.8485 29.1515L60 30ZM45 15L45.8485 14.1515L43.8 12.1029V15H45ZM45 120V121.2H46.2V120H45ZM30 120H28.8V121.2H30V120ZM30 15H31.2V13.8H30V15ZM15 15V13.8H13.8V15H15ZM15 210H13.8V210.497L14.1515 210.849L15 210ZM30 225L29.1515 225.849L29.5029 226.2H30V225ZM105 225V226.2H106.2V225H105ZM105 120H106.2V118.8H105V120ZM30 210H28.8V211.2H30V210ZM30 135V133.8H28.8V135H30ZM45 135H46.2V133.8H45V135ZM45 210V211.2H46.2V210H45ZM90 210V211.2H91.2V210H90ZM60 210H58.8V211.2H60V210ZM60 135V133.8H58.8V135H60ZM90 135H91.2V133.8H90V135ZM118.8 120V225H121.2V120H118.8ZM120 226.2H135V223.8H120V226.2ZM136.2 225V120H133.8V225H136.2ZM135 118.8H120V121.2H135V118.8ZM61.2 120V30H58.8V120H61.2ZM60.8485 29.1515L45.8485 14.1515L44.1515 15.8485L59.1515 30.8485L60.8485 29.1515ZM43.8 15V120H46.2V15H43.8ZM45 118.8H30V121.2H45V118.8ZM31.2 120V15H28.8V120H31.2ZM30 13.8H15V16.2H30V13.8ZM13.8 15V210H16.2V15H13.8ZM14.1515 210.849L29.1515 225.849L30.8485 224.151L15.8485 209.151L14.1515 210.849ZM30 226.2H105V223.8H30V226.2ZM106.2 225V120H103.8V225H106.2ZM105 118.8H60V121.2H105V118.8ZM31.2 210V135H28.8V210H31.2ZM30 136.2H45V133.8H30V136.2ZM43.8 135V210H46.2V135H43.8ZM45 208.8H30V211.2H45V208.8ZM90 208.8H60V211.2H90V208.8ZM61.2 210V135H58.8V210H61.2ZM60 136.2H90V133.8H60V136.2ZM88.8 135V210H91.2V135H88.8Z" fill="white"/>
<path d="M153 155V225H163V155H153ZM113 155V95L103 85V155H93V85H83V215L93 225H143V155H113ZM93 215V165H103V215H93ZM133 215H113V165H133V215Z" fill="url(#paint1_linear_2_4)"/>
<path d="M153 155V153.8H151.8V155H153ZM153 225H151.8V226.2H153V225ZM163 225V226.2H164.2V225H163ZM163 155H164.2V153.8H163V155ZM113 155H111.8V156.2H113V155ZM113 95H114.2V94.5029L113.849 94.1515L113 95ZM103 85L103.849 84.1515L101.8 82.1029V85H103ZM103 155V156.2H104.2V155H103ZM93 155H91.8V156.2H93V155ZM93 85H94.2V83.8H93V85ZM83 85V83.8H81.8V85H83ZM83 215H81.8V215.497L82.1515 215.849L83 215ZM93 225L92.1515 225.849L92.5029 226.2H93V225ZM143 225V226.2H144.2V225H143ZM143 155H144.2V153.8H143V155ZM93 215H91.8V216.2H93V215ZM93 165V163.8H91.8V165H93ZM103 165H104.2V163.8H103V165ZM103 215V216.2H104.2V215H103ZM133 215V216.2H134.2V215H133ZM113 215H111.8V216.2H113V215ZM113 165V163.8H111.8V165H113ZM133 165H134.2V163.8H133V165ZM151.8 155V225H154.2V155H151.8ZM153 226.2H163V223.8H153V226.2ZM164.2 225V155H161.8V225H164.2ZM163 153.8H153V156.2H163V153.8ZM114.2 155V95H111.8V155H114.2ZM113.849 94.1515L103.849 84.1515L102.151 85.8485L112.151 95.8485L113.849 94.1515ZM101.8 85V155H104.2V85H101.8ZM103 153.8H93V156.2H103V153.8ZM94.2 155V85H91.8V155H94.2ZM93 83.8H83V86.2H93V83.8ZM81.8 85V215H84.2V85H81.8ZM82.1515 215.849L92.1515 225.849L93.8485 224.151L83.8485 214.151L82.1515 215.849ZM93 226.2H143V223.8H93V226.2ZM144.2 225V155H141.8V225H144.2ZM143 153.8H113V156.2H143V153.8ZM94.2 215V165H91.8V215H94.2ZM93 166.2H103V163.8H93V166.2ZM101.8 165V215H104.2V165H101.8ZM103 213.8H93V216.2H103V213.8ZM133 213.8H113V216.2H133V213.8ZM114.2 215V165H111.8V215H114.2ZM113 166.2H133V163.8H113V166.2ZM131.8 165V215H134.2V165H131.8Z" fill="white"/>
<path d="M205.85 197.625C205.75 197.675 205.7 197.725 205.7 197.775C205.7 197.825 205.75 197.875 205.85 197.925C208.55 199.075 210.625 200.75 212.075 202.95C213.575 205.15 214.325 207.775 214.325 210.825C214.325 215.225 212.925 218.7 210.125 221.25C207.375 223.75 203.725 225 199.175 225H181.4C180.9 225 180.65 224.75 180.65 224.25V173.25C180.65 172.75 180.9 172.5 181.4 172.5H198.65C203.3 172.5 206.975 173.7 209.675 176.1C212.375 178.5 213.725 181.825 213.725 186.075C213.725 188.875 213.05 191.25 211.7 193.2C210.35 195.15 208.4 196.625 205.85 197.625ZM184.925 176.025C184.725 176.025 184.625 176.125 184.625 176.325V195.975C184.625 196.175 184.725 196.275 184.925 196.275H198.65C202.05 196.275 204.75 195.375 206.75 193.575C208.8 191.725 209.825 189.3 209.825 186.3C209.825 183.2 208.8 180.725 206.75 178.875C204.75 176.975 202.05 176.025 198.65 176.025H184.925ZM199.175 221.4C202.575 221.4 205.275 220.425 207.275 218.475C209.325 216.475 210.35 213.85 210.35 210.6C210.35 207.25 209.3 204.6 207.2 202.65C205.1 200.65 202.3 199.65 198.8 199.65H184.925C184.725 199.65 184.625 199.75 184.625 199.95V221.1C184.625 221.3 184.725 221.4 184.925 221.4H199.175ZM240.793 222.075C243.143 222.075 245.143 221.55 246.793 220.5C248.493 219.4 249.818 217.9 250.768 216C251.018 215.55 251.343 215.425 251.743 215.625L253.693 216.6C254.143 216.85 254.268 217.175 254.068 217.575C252.968 220.025 251.218 221.975 248.818 223.425C246.468 224.875 243.693 225.6 240.493 225.6C236.993 225.6 234.018 224.75 231.568 223.05C229.118 221.35 227.443 219.025 226.543 216.075C226.143 214.825 225.868 213.425 225.718 211.875C225.568 210.325 225.493 208.375 225.493 206.025C225.493 203.575 225.518 201.725 225.568 200.475C225.668 199.225 225.843 198.075 226.093 197.025C226.893 193.875 228.518 191.35 230.968 189.45C233.468 187.55 236.518 186.6 240.118 186.6C244.218 186.6 247.493 187.675 249.943 189.825C252.393 191.925 253.918 194.85 254.518 198.6C254.668 199.55 254.768 200.675 254.818 201.975C254.868 203.225 254.893 204.8 254.893 206.7C254.893 207.2 254.643 207.45 254.143 207.45H229.693C229.493 207.45 229.393 207.55 229.393 207.75C229.393 210.95 229.518 213.075 229.768 214.125C230.318 216.575 231.543 218.525 233.443 219.975C235.393 221.375 237.843 222.075 240.793 222.075ZM229.918 197.925C229.668 198.875 229.493 200.825 229.393 203.775C229.393 203.975 229.493 204.075 229.693 204.075H250.618C250.818 204.075 250.918 203.975 250.918 203.775C250.918 201.275 250.793 199.4 250.543 198.15C249.993 195.75 248.793 193.825 246.943 192.375C245.093 190.875 242.818 190.125 240.118 190.125C237.418 190.125 235.168 190.85 233.368 192.3C231.568 193.7 230.418 195.575 229.918 197.925ZM280.188 225.6C276.638 225.6 273.613 224.675 271.113 222.825C268.663 220.975 267.013 218.5 266.163 215.4C265.513 213 265.188 209.875 265.188 206.025C265.188 202.325 265.513 199.225 266.163 196.725C266.963 193.675 268.613 191.225 271.113 189.375C273.613 187.525 276.638 186.6 280.188 186.6C283.738 186.6 286.788 187.5 289.338 189.3C291.938 191.1 293.588 193.35 294.288 196.05C294.488 196.75 294.638 197.45 294.738 198.15V198.3C294.738 198.65 294.513 198.875 294.063 198.975L291.663 199.275H291.513C291.163 199.275 290.938 199.05 290.838 198.6L290.613 197.55C290.163 195.45 288.988 193.7 287.088 192.3C285.188 190.85 282.888 190.125 280.188 190.125C277.438 190.125 275.138 190.85 273.288 192.3C271.488 193.75 270.338 195.675 269.838 198.075C269.388 199.975 269.163 202.65 269.163 206.1C269.163 209.6 269.388 212.25 269.838 214.05C270.338 216.5 271.488 218.45 273.288 219.9C275.138 221.35 277.438 222.075 280.188 222.075C282.888 222.075 285.188 221.375 287.088 219.975C289.038 218.525 290.213 216.725 290.613 214.575L290.688 214.2C290.788 213.65 291.088 213.425 291.588 213.525L293.913 213.9C294.413 214 294.638 214.275 294.588 214.725L294.288 216.075C293.588 218.875 291.938 221.175 289.338 222.975C286.788 224.725 283.738 225.6 280.188 225.6ZM318.714 225.6C315.164 225.6 312.139 224.675 309.639 222.825C307.189 220.975 305.539 218.5 304.689 215.4C304.039 213 303.714 209.875 303.714 206.025C303.714 202.325 304.039 199.225 304.689 196.725C305.489 193.675 307.139 191.225 309.639 189.375C312.139 187.525 315.164 186.6 318.714 186.6C322.264 186.6 325.314 187.5 327.864 189.3C330.464 191.1 332.114 193.35 332.814 196.05C333.014 196.75 333.164 197.45 333.264 198.15V198.3C333.264 198.65 333.039 198.875 332.589 198.975L330.189 199.275H330.039C329.689 199.275 329.464 199.05 329.364 198.6L329.139 197.55C328.689 195.45 327.514 193.7 325.614 192.3C323.714 190.85 321.414 190.125 318.714 190.125C315.964 190.125 313.664 190.85 311.814 192.3C310.014 193.75 308.864 195.675 308.364 198.075C307.914 199.975 307.689 202.65 307.689 206.1C307.689 209.6 307.914 212.25 308.364 214.05C308.864 216.5 310.014 218.45 311.814 219.9C313.664 221.35 315.964 222.075 318.714 222.075C321.414 222.075 323.714 221.375 325.614 219.975C327.564 218.525 328.739 216.725 329.139 214.575L329.214 214.2C329.314 213.65 329.614 213.425 330.114 213.525L332.439 213.9C332.939 214 333.164 214.275 333.114 214.725L332.814 216.075C332.114 218.875 330.464 221.175 327.864 222.975C325.314 224.725 322.264 225.6 318.714 225.6ZM356.186 186.6C360.586 186.6 363.936 187.75 366.236 190.05C368.536 192.3 369.686 195.35 369.686 199.2V224.25C369.686 224.75 369.436 225 368.936 225H366.461C365.961 225 365.711 224.75 365.711 224.25V220.725C365.711 220.625 365.661 220.55 365.561 220.5C365.511 220.45 365.436 220.475 365.336 220.575C364.036 222.225 362.336 223.475 360.236 224.325C358.186 225.175 355.886 225.6 353.336 225.6C349.886 225.6 346.961 224.725 344.561 222.975C342.161 221.225 340.961 218.55 340.961 214.95C340.961 211.25 342.336 208.325 345.086 206.175C347.836 204.025 351.611 202.95 356.411 202.95H365.411C365.611 202.95 365.711 202.85 365.711 202.65V199.275C365.711 196.475 364.911 194.25 363.311 192.6C361.761 190.95 359.361 190.125 356.111 190.125C353.561 190.125 351.461 190.65 349.811 191.7C348.161 192.75 347.136 194.15 346.736 195.9C346.586 196.4 346.286 196.625 345.836 196.575L343.211 196.2C342.661 196.1 342.436 195.9 342.536 195.6C342.986 192.9 344.436 190.725 346.886 189.075C349.386 187.425 352.486 186.6 356.186 186.6ZM354.011 222.15C357.161 222.15 359.886 221.375 362.186 219.825C364.536 218.275 365.711 216.125 365.711 213.375V206.55C365.711 206.35 365.611 206.25 365.411 206.25H356.786C353.236 206.25 350.361 207 348.161 208.5C346.011 210 344.936 212.075 344.936 214.725C344.936 217.175 345.786 219.025 347.486 220.275C349.186 221.525 351.361 222.15 354.011 222.15ZM422.94 197.625C422.84 197.675 422.79 197.725 422.79 197.775C422.79 197.825 422.84 197.875 422.94 197.925C425.64 199.075 427.715 200.75 429.165 202.95C430.665 205.15 431.415 207.775 431.415 210.825C431.415 215.225 430.015 218.7 427.215 221.25C424.465 223.75 420.815 225 416.265 225H398.49C397.99 225 397.74 224.75 397.74 224.25V173.25C397.74 172.75 397.99 172.5 398.49 172.5H415.74C420.39 172.5 424.065 173.7 426.765 176.1C429.465 178.5 430.815 181.825 430.815 186.075C430.815 188.875 430.14 191.25 428.79 193.2C427.44 195.15 425.49 196.625 422.94 197.625ZM402.015 176.025C401.815 176.025 401.715 176.125 401.715 176.325V195.975C401.715 196.175 401.815 196.275 402.015 196.275H415.74C419.14 196.275 421.84 195.375 423.84 193.575C425.89 191.725 426.915 189.3 426.915 186.3C426.915 183.2 425.89 180.725 423.84 178.875C421.84 176.975 419.14 176.025 415.74 176.025H402.015ZM416.265 221.4C419.665 221.4 422.365 220.425 424.365 218.475C426.415 216.475 427.44 213.85 427.44 210.6C427.44 207.25 426.39 204.6 424.29 202.65C422.19 200.65 419.39 199.65 415.89 199.65H402.015C401.815 199.65 401.715 199.75 401.715 199.95V221.1C401.715 221.3 401.815 221.4 402.015 221.4H416.265ZM446.858 179.625C445.758 179.625 444.858 179.275 444.158 178.575C443.458 177.875 443.108 176.975 443.108 175.875C443.108 174.775 443.458 173.875 444.158 173.175C444.858 172.475 445.758 172.125 446.858 172.125C447.958 172.125 448.858 172.475 449.558 173.175C450.258 173.875 450.608 174.775 450.608 175.875C450.608 176.975 450.258 177.875 449.558 178.575C448.858 179.275 447.958 179.625 446.858 179.625ZM445.433 224.925C444.933 224.925 444.683 224.675 444.683 224.175V187.875C444.683 187.375 444.933 187.125 445.433 187.125H447.908C448.408 187.125 448.658 187.375 448.658 187.875V224.175C448.658 224.675 448.408 224.925 447.908 224.925H445.433ZM486.522 173.25C486.522 172.75 486.772 172.5 487.272 172.5H489.747C490.247 172.5 490.497 172.75 490.497 173.25V224.25C490.497 224.75 490.247 225 489.747 225H487.272C486.772 225 486.522 224.75 486.522 224.25V220.575C486.522 220.425 486.472 220.35 486.372 220.35C486.322 220.3 486.247 220.325 486.147 220.425C485.097 222.075 483.697 223.35 481.947 224.25C480.197 225.15 478.222 225.6 476.022 225.6C472.622 225.6 469.747 224.7 467.397 222.9C465.047 221.1 463.447 218.675 462.597 215.625C462.247 214.475 462.022 213.2 461.922 211.8C461.822 210.35 461.772 208.475 461.772 206.175C461.772 203.925 461.822 202.075 461.922 200.625C462.022 199.175 462.222 197.875 462.522 196.725C463.272 193.625 464.822 191.175 467.172 189.375C469.572 187.525 472.522 186.6 476.022 186.6C478.222 186.6 480.197 187.05 481.947 187.95C483.697 188.85 485.097 190.125 486.147 191.775C486.197 191.925 486.272 192 486.372 192C486.472 191.95 486.522 191.85 486.522 191.7V173.25ZM485.547 215.025C485.897 214.075 486.122 213 486.222 211.8C486.372 210.6 486.447 208.725 486.447 206.175C486.447 203.525 486.372 201.6 486.222 200.4C486.072 199.15 485.822 198.025 485.472 197.025C484.922 194.975 483.847 193.325 482.247 192.075C480.697 190.775 478.772 190.125 476.472 190.125C474.122 190.125 472.097 190.775 470.397 192.075C468.697 193.325 467.547 194.95 466.947 196.95C466.497 197.9 466.172 199 465.972 200.25C465.822 201.45 465.747 203.4 465.747 206.1C465.747 208.7 465.822 210.6 465.972 211.8C466.122 212.95 466.372 214.025 466.722 215.025C467.222 217.125 468.347 218.825 470.097 220.125C471.847 221.425 473.947 222.075 476.397 222.075C478.747 222.075 480.697 221.425 482.247 220.125C483.847 218.825 484.947 217.125 485.547 215.025ZM526.723 187.95C526.723 187.45 526.973 187.2 527.473 187.2H529.873C530.373 187.2 530.623 187.45 530.623 187.95V224.25C530.623 224.75 530.373 225 529.873 225H527.473C526.973 225 526.723 224.75 526.723 224.25V220.575C526.723 220.425 526.673 220.35 526.573 220.35C526.473 220.3 526.398 220.35 526.348 220.5C525.298 222.15 523.873 223.4 522.073 224.25C520.323 225.1 518.248 225.525 515.848 225.525C512.148 225.525 509.073 224.425 506.623 222.225C504.173 220.025 502.948 217 502.948 213.15V187.95C502.948 187.45 503.198 187.2 503.698 187.2H506.098C506.598 187.2 506.848 187.45 506.848 187.95V212.1C506.848 215.1 507.723 217.5 509.473 219.3C511.273 221.1 513.648 222 516.598 222C519.648 222 522.098 221.1 523.948 219.3C525.798 217.45 526.723 215.05 526.723 212.1V187.95ZM555.46 225.375C552.76 225.375 550.36 224.95 548.26 224.1C546.21 223.2 544.61 222 543.46 220.5C542.31 219 541.735 217.35 541.735 215.55V214.575C541.735 214.075 541.985 213.825 542.485 213.825H544.81C545.31 213.825 545.56 214.075 545.56 214.575V215.4C545.56 217.25 546.485 218.85 548.335 220.2C550.185 221.5 552.535 222.15 555.385 222.15C558.185 222.15 560.46 221.475 562.21 220.125C563.96 218.775 564.835 217.1 564.835 215.1C564.835 213.7 564.385 212.55 563.485 211.65C562.585 210.75 561.51 210.075 560.26 209.625C559.06 209.125 557.235 208.5 554.785 207.75C551.985 206.9 549.735 206.1 548.035 205.35C546.335 204.6 544.885 203.55 543.685 202.2C542.535 200.8 541.96 199.05 541.96 196.95C541.96 193.9 543.16 191.475 545.56 189.675C548.01 187.825 551.21 186.9 555.16 186.9C557.81 186.9 560.135 187.35 562.135 188.25C564.185 189.1 565.76 190.275 566.86 191.775C568.01 193.275 568.585 194.975 568.585 196.875V197.1C568.585 197.6 568.335 197.85 567.835 197.85H565.51C565.01 197.85 564.76 197.6 564.76 197.1V196.875C564.76 194.975 563.86 193.4 562.06 192.15C560.31 190.85 557.985 190.2 555.085 190.2C552.285 190.2 550.035 190.8 548.335 192C546.635 193.15 545.785 194.725 545.785 196.725C545.785 198.625 546.56 200.05 548.11 201C549.71 201.95 552.185 202.925 555.535 203.925C558.435 204.775 560.735 205.575 562.435 206.325C564.185 207.075 565.685 208.15 566.935 209.55C568.185 210.9 568.81 212.675 568.81 214.875C568.81 218.025 567.585 220.575 565.135 222.525C562.735 224.425 559.51 225.375 555.46 225.375Z" fill="#E67B6C"/>
<defs>
<linearGradient id="paint0_linear_2_4" x1="75" y1="0" x2="75" y2="336" gradientUnits="userSpaceOnUse">
<stop stop-color="#E67B6C"/>
<stop offset="1" stop-color="white"/>
</linearGradient>
<linearGradient id="paint1_linear_2_4" x1="123" y1="75" x2="123" y2="299" gradientUnits="userSpaceOnUse">
<stop stop-color="#E67B6C"/>
<stop offset="1" stop-color="white"/>
</linearGradient>
</defs>
</svg>
