<svg width="173" height="336" viewBox="0 0 173 336" fill="none" xmlns="http://www.w3.org/2000/svg">
<path d="M120 120V225H135V120H120ZM60 120V30L45 15V120H30V15H15V210L30 225H105V120H60ZM30 210V135H45V210H30ZM90 210H60V135H90V210Z" fill="url(#paint0_linear_2_4)"/>
<path d="M120 120V118.8H118.8V120H120ZM120 225H118.8V226.2H120V225ZM135 225V226.2H136.2V225H135ZM135 120H136.2V118.8H135V120ZM60 120H58.8V121.2H60V120ZM60 30H61.2V29.5029L60.8485 29.1515L60 30ZM45 15L45.8485 14.1515L43.8 12.1029V15H45ZM45 120V121.2H46.2V120H45ZM30 120H28.8V121.2H30V120ZM30 15H31.2V13.8H30V15ZM15 15V13.8H13.8V15H15ZM15 210H13.8V210.497L14.1515 210.849L15 210ZM30 225L29.1515 225.849L29.5029 226.2H30V225ZM105 225V226.2H106.2V225H105ZM105 120H106.2V118.8H105V120ZM30 210H28.8V211.2H30V210ZM30 135V133.8H28.8V135H30ZM45 135H46.2V133.8H45V135ZM45 210V211.2H46.2V210H45ZM90 210V211.2H91.2V210H90ZM60 210H58.8V211.2H60V210ZM60 135V133.8H58.8V135H60ZM90 135H91.2V133.8H90V135ZM118.8 120V225H121.2V120H118.8ZM120 226.2H135V223.8H120V226.2ZM136.2 225V120H133.8V225H136.2ZM135 118.8H120V121.2H135V118.8ZM61.2 120V30H58.8V120H61.2ZM60.8485 29.1515L45.8485 14.1515L44.1515 15.8485L59.1515 30.8485L60.8485 29.1515ZM43.8 15V120H46.2V15H43.8ZM45 118.8H30V121.2H45V118.8ZM31.2 120V15H28.8V120H31.2ZM30 13.8H15V16.2H30V13.8ZM13.8 15V210H16.2V15H13.8ZM14.1515 210.849L29.1515 225.849L30.8485 224.151L15.8485 209.151L14.1515 210.849ZM30 226.2H105V223.8H30V226.2ZM106.2 225V120H103.8V225H106.2ZM105 118.8H60V121.2H105V118.8ZM31.2 210V135H28.8V210H31.2ZM30 136.2H45V133.8H30V136.2ZM43.8 135V210H46.2V135H43.8ZM45 208.8H30V211.2H45V208.8ZM90 208.8H60V211.2H90V208.8ZM61.2 210V135H58.8V210H61.2ZM60 136.2H90V133.8H60V136.2ZM88.8 135V210H91.2V135H88.8Z" fill="white"/>
<path d="M153 155V225H163V155H153ZM113 155V95L103 85V155H93V85H83V215L93 225H143V155H113ZM93 215V165H103V215H93ZM133 215H113V165H133V215Z" fill="url(#paint1_linear_2_4)"/>
<path d="M153 155V153.8H151.8V155H153ZM153 225H151.8V226.2H153V225ZM163 225V226.2H164.2V225H163ZM163 155H164.2V153.8H163V155ZM113 155H111.8V156.2H113V155ZM113 95H114.2V94.5029L113.849 94.1515L113 95ZM103 85L103.849 84.1515L101.8 82.1029V85H103ZM103 155V156.2H104.2V155H103ZM93 155H91.8V156.2H93V155ZM93 85H94.2V83.8H93V85ZM83 85V83.8H81.8V85H83ZM83 215H81.8V215.497L82.1515 215.849L83 215ZM93 225L92.1515 225.849L92.5029 226.2H93V225ZM143 225V226.2H144.2V225H143ZM143 155H144.2V153.8H143V155ZM93 215H91.8V216.2H93V215ZM93 165V163.8H91.8V165H93ZM103 165H104.2V163.8H103V165ZM103 215V216.2H104.2V215H103ZM133 215V216.2H134.2V215H133ZM113 215H111.8V216.2H113V215ZM113 165V163.8H111.8V165H113ZM133 165H134.2V163.8H133V165ZM151.8 155V225H154.2V155H151.8ZM153 226.2H163V223.8H153V226.2ZM164.2 225V155H161.8V225H164.2ZM163 153.8H153V156.2H163V153.8ZM114.2 155V95H111.8V155H114.2ZM113.849 94.1515L103.849 84.1515L102.151 85.8485L112.151 95.8485L113.849 94.1515ZM101.8 85V155H104.2V85H101.8ZM103 153.8H93V156.2H103V153.8ZM94.2 155V85H91.8V155H94.2ZM93 83.8H83V86.2H93V83.8ZM81.8 85V215H84.2V85H81.8ZM82.1515 215.849L92.1515 225.849L93.8485 224.151L83.8485 214.151L82.1515 215.849ZM93 226.2H143V223.8H93V226.2ZM144.2 225V155H141.8V225H144.2ZM143 153.8H113V156.2H143V153.8ZM94.2 215V165H91.8V215H94.2ZM93 166.2H103V163.8H93V166.2ZM101.8 165V215H104.2V165H101.8ZM103 213.8H93V216.2H103V213.8ZM133 213.8H113V216.2H133V213.8ZM114.2 215V165H111.8V215H114.2ZM113 166.2H133V163.8H113V166.2ZM131.8 165V215H134.2V165H131.8Z" fill="white"/>
<defs>
<linearGradient id="paint0_linear_2_4" x1="75" y1="0" x2="75" y2="336" gradientUnits="userSpaceOnUse">
<stop stop-color="#E67B6C"/>
<stop offset="1" stop-color="white"/>
</linearGradient>
<linearGradient id="paint1_linear_2_4" x1="123" y1="75" x2="123" y2="299" gradientUnits="userSpaceOnUse">
<stop stop-color="#E67B6C"/>
<stop offset="1" stop-color="white"/>
</linearGradient>
</defs>
</svg>
